<svg width="20.000000" height="20.000000" viewBox="0 0 20 20" fill="none" xmlns="http://www.w3.org/2000/svg" xmlns:xlink="http://www.w3.org/1999/xlink">
	<desc>
			Created with Pixso.
	</desc>
	<defs/>
	<path id="Vector" d="M19.94 9.99C17.2 9.95 15 7.73 15 4.99C12.26 4.99 10.04 2.79 10 0.05C8.94 -0.11 7.85 0.07 6.89 0.55L4.19 1.93C3.22 2.43 2.43 3.22 1.93 4.19L0.56 6.88C0.06 7.85 -0.11 8.96 0.06 10.04L0.53 13.02C0.7 14.1 1.21 15.1 1.98 15.87L4.12 18.01C4.89 18.78 5.89 19.29 6.96 19.46L9.96 19.93C11.03 20.1 12.13 19.93 13.1 19.43L15.8 18.06C16.78 17.56 17.57 16.77 18.06 15.8L19.43 13.11C19.92 12.15 20.1 11.06 19.94 9.99ZM6.87 14.37C6.18 14.37 5.62 13.81 5.62 13.12C5.62 12.43 6.18 11.87 6.87 11.87C7.56 11.87 8.12 12.43 8.12 13.12C8.12 13.81 7.56 14.37 6.87 14.37ZM8.12 8.12C7.43 8.12 6.87 7.56 6.87 6.87C6.87 6.18 7.43 5.62 8.12 5.62C8.81 5.62 9.37 6.18 9.37 6.87C9.37 7.56 8.81 8.12 8.12 8.12ZM14.37 13.12C13.68 13.12 13.12 12.56 13.12 11.87C13.12 11.18 13.68 10.62 14.37 10.62C15.06 10.62 15.62 11.18 15.62 11.87C15.62 12.56 15.06 13.12 14.37 13.12Z" fill="#F9512E" fill-opacity="1.000000" fill-rule="nonzero"/>
</svg>
