<svg width="157.868652" height="30.199951" viewBox="0 0 157.869 30.2" fill="none" xmlns="http://www.w3.org/2000/svg" xmlns:xlink="http://www.w3.org/1999/xlink">
	<desc>
			Created with Pixso.
	</desc>
	<defs/>
	<path id="Bakerlab" d="M52.67 0L52.67 25C52.67 27.2 52.87 28.8 54.31 29.16L54.31 29.84L46.07 29.84L46.07 29.16C47.59 28.72 47.67 27.04 47.67 25L47.67 4.76C47.67 3.35 47.27 2.76 45.67 2.16L45.67 1.47L52.67 0ZM111.9 0L111.9 25C111.9 27.2 112.1 28.8 113.5 29.16L113.5 29.84L105.3 29.84L105.3 29.16C106.82 28.72 106.9 27.04 106.9 25L106.9 4.76C106.9 3.35 106.5 2.76 104.9 2.16L104.9 1.47L111.9 0ZM143.22 14.4C144.5 12 147.46 11 149.38 11C153.86 11 157.86 14.52 157.86 20.84C157.86 27.28 153.62 30.2 148.02 30.2C145.62 30.2 143.5 29.48 142.18 28.16C140.74 29.4 138.26 30.28 138.26 29.64L138.26 4.71C138.26 3.35 137.86 2.76 136.22 2.16L136.22 1.47L143.22 0L143.22 14.4ZM20.48 8.47C20.48 14.43 14.12 15.4 13.31 15.4C15.91 15.4 22.35 15.84 22.35 22.68C22.35 29.68 16.64 29.84 9.72 29.84L0 29.84L0 29.48C1.72 29.48 2.31 27.08 2.31 24.36L2.31 7.19C2.31 4.71 1.75 2 0 2L0 1.68L9.72 1.68C9.89 1.68 10.07 1.67 10.25 1.67C15.6 1.67 20.48 1.66 20.48 8.47ZM14.91 8.4C14.91 2.43 11.6 2.35 9.72 2.35L8.16 2.35L8.16 15.24L9.72 15.24C11.87 15.24 14.91 14.31 14.91 8.4ZM41.22 24.97C41.22 25.17 41.26 27.76 43.14 27.76C43.14 27.76 43.98 27.76 44.22 27.08L44.9 27.36C44.58 28.64 42.74 30.2 40.22 30.2C40.22 30.2 36.66 30.2 36.22 26.96C35.62 28.72 33.26 30.2 30.42 30.2C30.42 30.2 25.82 30.2 25.82 26.12C25.82 21.76 29.18 21.36 36.18 19.6L36.18 17.12C36.18 12.96 33.86 10.88 31.1 12.31C30.16 12.79 29.82 13.28 29.82 13.52C29.82 13.61 29.87 13.66 29.94 13.68C30.54 13.76 31.06 14.04 31.42 14.56C31.69 14.95 31.82 15.39 31.82 15.83C31.82 16.55 31.47 17.27 30.82 17.71C29.78 18.4 28.38 18.16 27.66 17.12C27.4 16.7 27.27 16.23 27.27 15.77C27.27 15.39 27.36 15.02 27.54 14.72C27.94 14.04 28.46 12.96 30.66 11.8C32.46 10.84 34.54 11 34.54 11C39.78 11 41.22 14.28 41.22 19L41.22 24.96L41.22 24.97ZM131.61 24.97C131.61 25.17 131.65 27.76 133.53 27.76C133.53 27.76 134.37 27.76 134.61 27.08L135.29 27.36C134.97 28.64 133.13 30.2 130.61 30.2C130.61 30.2 127.05 30.2 126.61 26.96C126.01 28.72 123.65 30.2 120.81 30.2C120.81 30.2 116.21 30.2 116.21 26.12C116.21 21.76 119.57 21.36 126.57 19.6L126.57 17.12C126.57 12.96 124.25 10.88 121.49 12.31C120.55 12.79 120.21 13.28 120.21 13.52C120.21 13.61 120.26 13.66 120.33 13.68C120.93 13.76 121.45 14.04 121.81 14.56C122.08 14.95 122.21 15.39 122.21 15.83C122.21 16.55 121.86 17.27 121.21 17.71C120.17 18.4 118.77 18.16 118.05 17.12C117.79 16.7 117.66 16.23 117.66 15.77C117.66 15.39 117.75 15.02 117.93 14.72C118.33 14.04 118.85 12.96 121.05 11.8C122.85 10.84 124.93 11 124.93 11C130.17 11 131.61 14.28 131.61 19L131.61 24.96L131.61 24.97ZM67.46 20.68C67.46 15.04 71.29 11 76.81 11C82.62 11 85.33 14 85.33 20.24L72.62 20.24C72.93 24.16 74.93 26.2 77.62 26.8C79.77 27.28 82.98 26.48 83.98 24.6L84.66 24.96C84.02 27.04 81.66 30.2 76.29 30.2C71.06 30.2 67.46 25.36 67.46 20.68ZM94.59 15.52C96.71 12.2 98.35 11.6 99.31 11.2C100.15 10.84 101.67 11 102.55 11.72C103.23 12.3 103.57 13.14 103.57 13.97C103.57 14.67 103.33 15.37 102.83 15.92C101.75 17.16 99.91 17.31 98.63 16.24C98.03 15.68 97.71 15 97.71 14.28C97.71 13.84 96.07 14.24 94.59 16.64L94.59 24.96C94.59 27.2 94.79 28.76 96.23 29.16L96.23 29.84L87.95 29.84L87.95 29.16C89.51 28.68 89.55 27.04 89.55 24.96L89.55 16.08C89.55 14.72 89.19 14.12 87.55 13.28L87.55 12.6L94.59 11L94.59 15.52ZM57.35 18.79C63.27 27.16 63.35 27.16 63.35 27.16C64.67 29 66.47 29.12 67.15 29.16L67.15 29.84L61.51 29.84C58.75 29.84 58.39 29.12 55.71 25.12C54.51 23.36 53.47 21.76 53.47 21.76L57.23 17.68C57.23 17.68 59.94 14.93 59.94 13.27C59.94 12.52 59.38 11.99 57.75 12.04L57.75 11.36L67.47 11.36L67.47 12.04C66.75 12.12 62.67 12.24 57.35 18.79ZM76.62 11.68C74.25 11.68 72.62 15.72 72.62 19.56L80.46 19.56C80.46 14.52 78.81 11.68 76.62 11.68ZM143.22 22.84C143.22 27.88 145.7 29.52 147.98 29.52C150.9 29.52 152.14 27.28 152.14 21.16C152.14 14.76 150.66 12.68 147.38 12.68C144.66 12.68 143.22 14.92 143.22 17.76L143.22 22.84ZM8.16 29.16L9.72 29.16L9.84 29.16C13.27 29.16 16.48 29.16 16.48 22.48C16.48 16.12 12.39 15.92 9.72 15.92L8.16 15.92L8.16 29.16ZM33.54 27.76C34.9 27.76 35.82 26.68 36.18 25.72L36.18 20.31C32.26 21.2 30.94 23.08 30.94 25.12C30.94 25.12 30.94 27.76 33.54 27.76ZM123.93 27.76C125.29 27.76 126.21 26.68 126.57 25.72L126.57 20.31C122.65 21.2 121.33 23.08 121.33 25.12C121.33 25.12 121.33 27.76 123.93 27.76Z" fill="#1C1A26" fill-opacity="1.000000" fill-rule="evenodd"/>
</svg>
