<svg width="136.000000" height="32.000000" viewBox="0 0 136 32" fill="none" xmlns="http://www.w3.org/2000/svg" xmlns:xlink="http://www.w3.org/1999/xlink">
	<desc>
			Created with Pixso.
	</desc>
	<defs>
		<clipPath id="clip11342_1559">
			<rect id="Logo" rx="0.000000" width="135.000000" height="31.000000" transform="translate(0.500000 0.500000)" fill="white" fill-opacity="0"/>
		</clipPath>
	</defs>
	<g clip-path="url(#clip11342_1559)">
		<path id="Bakerlab" d="M46.69 4L46.69 24C46.69 25.76 46.85 27.04 48.01 27.32L48.01 27.87L41.34 27.87L41.34 27.32C42.57 26.97 42.64 25.63 42.64 24L42.64 7.8C42.64 6.68 42.32 6.2 41.02 5.72L41.02 5.18L46.69 4ZM94.64 4L94.64 24C94.64 25.76 94.8 27.04 95.93 27.32L95.93 27.87L89.29 27.87L89.29 27.32C90.52 26.97 90.59 25.63 90.59 24L90.59 7.8C90.59 6.68 90.26 6.2 88.97 5.72L88.97 5.18L94.64 4ZM119.99 15.52C121.03 13.6 123.42 12.8 124.98 12.8C128.6 12.8 131.84 15.61 131.84 20.67C131.84 25.82 128.41 28.15 123.88 28.15C121.93 28.15 120.22 27.58 119.15 26.52C117.98 27.52 115.97 28.22 115.97 27.71L115.97 7.77C115.97 6.68 115.65 6.2 114.32 5.72L114.32 5.18L119.99 4L119.99 15.52ZM20.62 10.78C20.62 15.55 15.47 16.32 14.83 16.32C16.93 16.32 22.14 16.67 22.14 22.14C22.14 27.74 17.51 27.87 11.91 27.87L4.04 27.87L4.04 27.58C5.44 27.58 5.92 25.66 5.92 23.48L5.92 9.76C5.92 7.77 5.47 5.6 4.04 5.6L4.04 5.34L11.91 5.34C12.06 5.34 12.2 5.34 12.34 5.34C16.68 5.33 20.62 5.33 20.62 10.78ZM16.12 10.72C16.12 5.95 13.43 5.88 11.91 5.88L10.65 5.88L10.65 16.19L11.91 16.19C13.66 16.19 16.12 15.45 16.12 10.72ZM37.41 23.97C37.41 24.14 37.44 26.2 38.97 26.2C38.97 26.2 39.65 26.2 39.84 25.66L40.39 25.88C40.13 26.91 38.64 28.15 36.61 28.15C36.61 28.15 33.72 28.15 33.37 25.56C32.88 26.97 30.97 28.15 28.67 28.15C28.67 28.15 24.95 28.15 24.95 24.89C24.95 21.4 27.67 21.08 33.33 19.67L33.33 17.69C33.33 14.36 31.46 12.7 29.22 13.85C28.46 14.23 28.19 14.62 28.19 14.82C28.19 14.89 28.22 14.93 28.28 14.94C28.77 15 29.19 15.23 29.48 15.64C29.7 15.96 29.81 16.31 29.81 16.66C29.81 17.24 29.52 17.81 29 18.17C28.15 18.71 27.02 18.52 26.44 17.69C26.23 17.36 26.12 16.98 26.12 16.62C26.12 16.31 26.19 16.02 26.34 15.77C26.66 15.23 27.08 14.36 28.87 13.43C30.32 12.67 32.01 12.8 32.01 12.8C36.25 12.8 37.41 15.42 37.41 19.2L37.41 23.96L37.41 23.97ZM110.59 23.97C110.59 24.14 110.62 26.2 112.14 26.2C112.14 26.2 112.82 26.2 113.02 25.66L113.57 25.88C113.31 26.91 111.82 28.15 109.78 28.15C109.78 28.15 106.9 28.15 106.54 25.56C106.06 26.97 104.14 28.15 101.85 28.15C101.85 28.15 98.12 28.15 98.12 24.89C98.12 21.4 100.84 21.08 106.51 19.67L106.51 17.69C106.51 14.36 104.63 12.7 102.4 13.85C101.63 14.23 101.36 14.62 101.36 14.82C101.36 14.89 101.4 14.93 101.46 14.94C101.94 15 102.36 15.23 102.65 15.64C102.87 15.96 102.98 16.31 102.98 16.66C102.98 17.24 102.69 17.81 102.17 18.17C101.33 18.71 100.19 18.52 99.61 17.69C99.4 17.36 99.29 16.98 99.29 16.62C99.29 16.31 99.37 16.02 99.51 15.77C99.84 15.23 100.26 14.36 102.04 13.43C103.5 12.67 105.18 12.8 105.18 12.8C109.42 12.8 110.59 15.42 110.59 19.2L110.59 23.96L110.59 23.97ZM58.65 20.54C58.65 16.03 61.76 12.8 66.23 12.8C70.93 12.8 73.13 15.2 73.13 20.19L62.83 20.19C63.09 23.32 64.71 24.96 66.88 25.43C68.63 25.82 71.22 25.18 72.03 23.67L72.58 23.96C72.06 25.63 70.15 28.15 65.81 28.15C61.57 28.15 58.65 24.28 58.65 20.54ZM80.62 16.41C82.34 13.76 83.66 13.28 84.44 12.96C85.12 12.67 86.35 12.8 87.06 13.37C87.61 13.84 87.89 14.51 87.89 15.17C87.89 15.73 87.69 16.29 87.29 16.73C86.42 17.72 84.93 17.85 83.89 16.99C83.41 16.54 83.15 16 83.15 15.42C83.15 15.07 81.82 15.39 80.62 17.31L80.62 23.96C80.62 25.76 80.78 27 81.95 27.32L81.95 27.87L75.25 27.87L75.25 27.32C76.51 26.94 76.54 25.63 76.54 23.96L76.54 16.86C76.54 15.77 76.25 15.29 74.92 14.62L74.92 14.08L80.62 12.8L80.62 16.41ZM50.48 19.04C55.27 25.72 55.33 25.72 55.33 25.72C56.4 27.2 57.86 27.29 58.41 27.32L58.41 27.87L53.84 27.87C51.61 27.87 51.32 27.29 49.15 24.09C48.18 22.68 47.33 21.4 47.33 21.4L50.38 18.14C50.38 18.14 52.57 15.95 52.57 14.62C52.57 14.01 52.11 13.59 50.8 13.63L50.8 13.08L58.67 13.08L58.67 13.63C58.08 13.69 54.78 13.79 50.48 19.04ZM66.07 13.34C64.16 13.34 62.83 16.57 62.83 19.64L69.18 19.64C69.18 15.61 67.85 13.34 66.07 13.34ZM119.99 22.27C119.99 26.3 122 27.61 123.84 27.61C126.21 27.61 127.21 25.82 127.21 20.92C127.21 15.8 126.01 14.14 123.36 14.14C121.16 14.14 119.99 15.93 119.99 18.2L119.99 22.27ZM10.65 27.32L11.91 27.32L12.01 27.32C14.79 27.32 17.38 27.32 17.38 21.98C17.38 16.89 14.08 16.73 11.91 16.73L10.65 16.73L10.65 27.32ZM31.2 26.2C32.3 26.2 33.04 25.34 33.33 24.57L33.33 20.25C30.16 20.96 29.09 22.46 29.09 24.09C29.09 24.09 29.09 26.2 31.2 26.2ZM104.37 26.2C105.47 26.2 106.22 25.34 106.51 24.57L106.51 20.25C103.34 20.96 102.27 22.46 102.27 24.09C102.27 24.09 102.27 26.2 104.37 26.2Z" fill="#1C1A26" fill-opacity="1.000000" fill-rule="evenodd"/>
	</g>
</svg>
